<svg clip-rule="evenodd" fill-rule="evenodd" stroke-linejoin="round" stroke-miterlimit="2" viewBox="0 0 512 512" xmlns="http://www.w3.org/2000/svg"><path d="m511.997 92.162c0-50.864-41.295-92.159-92.159-92.159h-327.679c-50.864 0-92.159 41.295-92.159 92.159v327.679c0 50.864 41.295 92.159 92.159 92.159h327.679c50.864 0 92.159-41.295 92.159-92.159z" fill="#1f1e1e"/><g fill="#fff" fill-rule="nonzero" transform="matrix(.82352 0 0 .82352 44.8809 45.1772)"><path d="m125.036 163.222c2.69-2.647 5.516-5.153 8.465-7.508 3.502-2.985 3.993-8.291 1.098-11.867-2.914-3.598-8.164-4.22-11.832-1.395-3.417 2.726-6.687 5.631-9.797 8.703-1.699 1.611-2.663 3.852-2.663 6.194 0 4.682 3.853 8.535 8.535 8.535 2.341 0 4.583-.964 6.194-2.663z"/><path d="m55.01 50.516c15.443-6.096 32.391-7.31 48.546-3.477-4.938.41-9.783 1.585-14.36 3.484-28.585 11.973-36.999 48.469-37.342 50.031-1.01 4.561 1.902 9.147 6.46 10.172.613.136 1.239.207 1.868.21 3.977.005 7.455-2.775 8.327-6.656.062-.289 6.914-29.531 27.308-38.031 9.046-3.286 19.009-3.026 27.871.727-20.292 9.957-49.085 33.14-54.921 85.691-.034.312-.051.625-.051.939 0 4.328 3.293 8.004 7.594 8.479 4.683.52 8.902-2.86 9.421-7.543 5.77-51.898 36.239-69.578 51.84-75.29 2.118 19.192 9.778 34.528 20.54 56.04 6.144 12.297 13.788 27.59 22.23 47.273 20.479 47.789 18.218 119.679 16.893 142.342h-135.841c-4.987-44.006 5.583-88.399 29.866-125.436 1.058-1.707 2.203-3.348 3.34-4.985l1.347-1.953c1.714-2.518 1.955-5.771.63-8.514-1.42-2.949-4.416-4.831-7.688-4.831-2.824 0-5.471 1.401-7.059 3.737l-1.277 1.86c-1.281 1.859-2.563 3.73-3.66 5.495-36.62 56.028-43.921 126.289-19.61 188.647.074.203.145.398.239.593 13.552 34.292 35.926 64.403 64.85 87.273.324.297.672.566 1.043.808 75.651 59.2 181.917 59.2 257.568 0 .367-.241.715-.511 1.04-.808 28.925-22.869 51.301-52.98 64.855-87.273.094-.195.16-.39.238-.593 17.425-44.674 18.813-94.041 3.925-139.624-1.463-4.446-6.326-6.901-10.772-5.438-3.493 1.148-5.87 4.431-5.87 8.107 0 .906.145 1.807.428 2.667 6.247 19.058 9.416 38.991 9.387 59.047-.011 7.091-.415 14.175-1.211 21.221h-59.41c.554-3.026.84-6.095.855-9.171 0-28.277-22.926-51.199-51.203-51.199-28.276 0-51.199 22.922-51.199 51.2.017 3.077.302 6.147.856 9.17h-38.52c10.88-30.026 27.552-67.147 50.056-92.104 14.335-15.856 26.51-27.828 36.299-37.453 17.18-16.879 29.422-28.921 37.633-46.441 12.938 10.473 36.027 37.055 24.746 88.015-.87 4.535 2.024 8.945 6.535 9.941 4.512 1 9-1.773 10.121-6.258 11.446-51.589-8.293-82.831-24.277-98.831 9.591-.679 19.093 2.291 26.59 8.313 16.562 14.644 13.586 44.526 13.55 44.823-.494 4.641 2.905 8.871 7.544 9.387.32.043.636.062.957.062 4.322-.01 7.988-3.301 8.465-7.597.18-1.578 4.027-38.843-19.133-59.406-3.643-3.222-7.757-5.867-12.2-7.843 16.409 1.684 31.937 8.272 44.55 18.902 3.509 2.852 8.706 2.447 11.73-.914 3.022-3.362 2.877-8.57-.327-11.758-19.933-17.643-46.599-25.75-72.979-22.187 12.77-8.38 28.567-10.823 43.273-6.692.851.276 1.74.417 2.635.417 4.681 0 8.534-3.852 8.534-8.534 0-3.604-2.284-6.838-5.681-8.043-21.952-6.243-45.617-1.607-63.59 12.457-1.729-16.157-9.798-30.987-22.426-41.214-2.281-2.18-5.591-2.925-8.586-1.933-3.479 1.157-5.842 4.433-5.842 8.1 0 2.65 1.234 5.155 3.335 6.769 10.116 7.979 16.237 20.007 16.734 32.88-4.712-7.365-11.204-13.425-18.875-17.621-29.081-15.942-66.944-1.172-68.542-.524-3.161 1.329-5.227 4.438-5.227 7.867 0 4.681 3.852 8.533 8.533 8.533 1.031 0 2.053-.187 3.018-.552.317-.13 31.899-12.477 54.015-.36 5.804 3.293 10.581 8.132 13.8 13.977-38.272-12.277-73.679 13.902-88.815 32.316-1.935 2.352-2.471 5.569-1.402 8.422 1.071 2.851 3.589 4.922 6.594 5.422 3.007.5 6.054-.64 7.992-2.996 1.613-1.965 38.398-45.629 80.143-22.633-6.824 15.824-17.433 26.278-35.053 43.598-9.942 9.78-22.325 21.949-37.008 38.179-25.832 28.664-44.16 71.125-55.469 103.549h-11.945c1.468-24.983 3.508-98.131-18.34-149.064-8.624-20.14-16.398-35.688-22.644-48.18-11.07-22.101-17.648-35.414-19.066-52.601 46.722-8.192 67.62 44.972 68.522 47.351 1.293 3.233 4.442 5.365 7.924 5.365 4.682 0 8.534-3.852 8.534-8.534 0-.954-.16-1.902-.474-2.804-8.378-22.34-33.44-58.631-73.729-59.315 4.961-4.496 11.075-7.527 17.657-8.754 24.706-4.265 50.807 17.605 51.073 17.816 1.521 1.238 3.423 1.914 5.384 1.914 4.681 0 8.533-3.852 8.533-8.533 0-2.417-1.027-4.724-2.823-6.341-1.31-1.117-32.368-27.375-65.027-21.676-8.613 1.489-16.715 5.121-23.558 10.559 4.633-12.011 14.31-21.405 26.453-25.68 3.236-1.292 5.37-4.442 5.37-7.926 0-1.085-.207-2.16-.609-3.168-1.74-4.346-6.744-6.494-11.092-4.761-15.259 5.595-27.691 17.021-34.551 31.754-12.459-19.121-33.349-31.163-56.14-32.361-.007 0-.014 0-.022 0-4.673 0-8.522 3.839-8.533 8.513v.024c0 4.672 3.839 8.519 8.511 8.53 15.262.842 29.429 8.271 38.802 20.344-23.823-11.896-51.687-12.831-76.253-2.559-3.192 1.313-5.286 4.439-5.286 7.891 0 4.681 3.852 8.533 8.533 8.533 1.197 0 2.382-.253 3.476-.74zm356.743 359.411h-319.143c-5.441-8.101-10.257-16.605-14.406-25.438h347.943c-4.145 8.833-8.957 17.337-14.394 25.438zm-255.069 59.569h190.99c-59.148 33.91-131.843 33.91-190.99 0zm216.002-17.066h-241.005c-9.48-7.64-18.22-16.157-26.102-25.437h293.205c-7.883 9.28-16.624 17.797-26.105 25.437zm60.503-85.007h-362.008c-2.966-8.306-5.347-16.81-7.125-25.45h376.252c-1.778 8.64-4.161 17.144-7.13 25.45zm-134.077-51.687c0-18.851 15.282-34.133 34.132-34.133 18.852 0 34.133 15.282 34.133 34.133-.049 3.105-.517 6.191-1.39 9.171h-65.484c-.872-2.981-1.339-6.066-1.39-9.171z"/></g></svg>