<svg height="512pt" viewBox="-43 0 512 512.004" width="512pt" xmlns="http://www.w3.org/2000/svg"><path d="M82.035 163.223a109.422 109.422 0 0 1 8.465-7.508 8.536 8.536 0 0 0 1.098-11.867c-2.914-3.598-8.164-4.22-11.832-1.395a124.001 124.001 0 0 0-9.797 8.703 8.535 8.535 0 1 0 12.066 12.066zm0 0"/><path d="M12.008 50.516a81.188 81.188 0 0 1 48.547-3.477 47.821 47.821 0 0 0-14.36 3.484c-28.586 11.973-37 48.47-37.343 50.032a8.535 8.535 0 0 0 6.46 10.172 8.826 8.826 0 0 0 1.868.21 8.526 8.526 0 0 0 8.328-6.656c.062-.289 6.914-29.531 27.308-38.031a38.099 38.099 0 0 1 27.871.727c-20.292 9.957-49.085 33.14-54.921 85.691a8.53 8.53 0 0 0 7.543 9.418c4.683.52 8.902-2.86 9.421-7.543 5.77-51.898 36.239-69.578 51.84-75.29 2.118 19.192 9.778 34.528 20.54 56.04 6.144 12.297 13.788 27.59 22.23 47.273 20.48 47.79 18.219 119.68 16.894 142.344H18.391a189.798 189.798 0 0 1 29.867-125.437c1.058-1.707 2.203-3.348 3.34-4.985l1.347-1.953a8.537 8.537 0 0 0 .63-8.515 8.534 8.534 0 0 0-14.747-1.094l-1.277 1.86c-1.281 1.859-2.563 3.73-3.66 5.495C-2.73 246.31-10.031 316.571 14.28 378.93c.074.203.145.398.239.593a209.35 209.35 0 0 0 64.851 87.274c.324.297.672.566 1.043.808 75.652 59.2 181.918 59.2 257.57 0a8.321 8.321 0 0 0 1.04-.808 209.358 209.358 0 0 0 64.855-87.274c.094-.195.16-.39.238-.593a207.203 207.203 0 0 0 3.926-139.625 8.534 8.534 0 0 0-10.773-5.438 8.534 8.534 0 0 0-5.442 10.774 188.663 188.663 0 0 1 9.387 59.047 191.59 191.59 0 0 1-1.211 21.222h-59.41a52.31 52.31 0 0 0 .855-9.172c0-28.277-22.926-51.199-51.203-51.199s-51.2 22.922-51.2 51.2c.017 3.077.302 6.148.856 9.171h-38.52c10.88-30.027 27.552-67.148 50.056-92.105 14.335-15.856 26.511-27.828 36.3-37.453 17.18-16.88 29.422-28.922 37.633-46.442 12.938 10.473 36.027 37.055 24.746 88.016-.87 4.535 2.024 8.945 6.535 9.941 4.512 1 9-1.773 10.121-6.258 11.446-51.59-8.293-82.832-24.277-98.832a38.156 38.156 0 0 1 26.59 8.313c16.562 14.644 13.586 44.527 13.55 44.824a8.537 8.537 0 0 0 7.544 9.387c.32.043.636.062.957.062a8.538 8.538 0 0 0 8.465-7.597c.18-1.578 4.027-38.844-19.133-59.407a47.614 47.614 0 0 0-12.2-7.843 82.142 82.142 0 0 1 44.551 18.902 8.537 8.537 0 0 0 11.73-.914 8.537 8.537 0 0 0-.327-11.758 91.612 91.612 0 0 0-72.98-22.187 52.827 52.827 0 0 1 43.273-6.692 8.534 8.534 0 0 0 5.488-16.16 71.464 71.464 0 0 0-63.59 12.457 61.45 61.45 0 0 0-22.426-41.215 8.542 8.542 0 0 0-8.586-1.933 8.537 8.537 0 0 0-2.507 14.87 44.04 44.04 0 0 1 16.734 32.88 52.066 52.066 0 0 0-18.875-17.621c-29.082-15.942-66.945-1.172-68.543-.524a8.533 8.533 0 0 0 6.324 15.848c.317-.13 31.899-12.477 54.016-.36a36.086 36.086 0 0 1 13.8 13.977c-38.273-12.277-73.68 13.902-88.816 32.316a8.54 8.54 0 0 0-1.402 8.422 8.542 8.542 0 0 0 6.594 5.422c3.007.5 6.054-.64 7.992-2.996 1.613-1.965 38.398-45.629 80.144-22.633-6.824 15.824-17.433 26.278-35.054 43.598-9.942 9.781-22.325 21.95-37.008 38.18-25.832 28.664-44.16 71.125-55.469 103.55h-11.945c1.468-24.984 3.508-98.132-18.34-149.066-8.625-20.14-16.399-35.688-22.645-48.18-11.07-22.101-17.648-35.414-19.066-52.601 46.723-8.192 67.621 44.972 68.523 47.351a8.534 8.534 0 0 0 15.984-5.973c-8.378-22.34-33.44-58.632-73.73-59.316a36.175 36.175 0 0 1 17.657-8.754c24.707-4.265 50.808 17.606 51.074 17.817a8.533 8.533 0 0 0 11.094-12.961c-1.31-1.117-32.368-27.375-65.028-21.676a52.149 52.149 0 0 0-23.558 10.559 44.023 44.023 0 0 1 26.453-25.68 8.534 8.534 0 0 0 4.761-11.094A8.542 8.542 0 0 0 133.473.61a61.448 61.448 0 0 0-34.551 31.754A71.483 71.483 0 0 0 42.782.003a8.533 8.533 0 0 0-8.555 8.513 8.53 8.53 0 0 0 8.511 8.554A52.808 52.808 0 0 1 81.54 37.414a91.597 91.597 0 0 0-76.254-2.559 8.533 8.533 0 1 0 6.723 15.684zM368.754 409.93H49.609a192.104 192.104 0 0 1-14.406-25.438h347.945a192.028 192.028 0 0 1-14.394 25.438zM113.69 469.5h190.985c-59.149 33.91-131.844 33.91-190.992 0zm215.997-17.066H88.68a193.785 193.785 0 0 1-26.102-25.438h293.207a193.814 193.814 0 0 1-26.105 25.438zm60.503-85.008H28.18a188.879 188.879 0 0 1-7.125-25.45h376.254a188.321 188.321 0 0 1-7.13 25.45zm-134.078-51.688c0-18.851 15.282-34.133 34.133-34.133 18.852 0 34.133 15.282 34.133 34.133a34.566 34.566 0 0 1-1.39 9.172h-65.485a34.726 34.726 0 0 1-1.39-9.172zm0 0"/></svg>
